<svg width="10" height="8" viewBox="0 0 10 8" fill="none" xmlns="http://www.w3.org/2000/svg">
    <path d="M7.70019 0.389933L3.92019 5.38993L2.29019 3.27993C2.12708 3.07041 1.88742 2.93427 1.62393 2.90145C1.36044 2.86863 1.09471 2.94182 0.885189 3.10493C0.675668 3.26804 0.539523 3.5077 0.506704 3.77119C0.473885 4.03468 0.547081 4.30041 0.710189 4.50993L3.14019 7.61993C3.23436 7.73911 3.35445 7.83527 3.49133 7.90111C3.62821 7.96696 3.7783 8.00075 3.93019 7.99993C4.08291 7.99957 4.23351 7.96422 4.37045 7.89662C4.50739 7.82902 4.62703 7.73095 4.72019 7.60993L9.29019 1.60993C9.45197 1.39776 9.52284 1.13001 9.48721 0.865583C9.45158 0.601156 9.31236 0.361714 9.10019 0.199932C8.88802 0.0381502 8.62027 -0.0327202 8.35584 0.00291173C8.09141 0.0385436 7.85197 0.17776 7.69019 0.389933H7.70019Z" fill="white"/>
</svg>
