<svg xmlns="http://www.w3.org/2000/svg" style="display: none;">
    <symbol id="search-icon" viewBox="0 0 32 32">
        <path d="M25.5 25.5L21.014 21.006L25.5 25.5ZM23.5 15C23.5 17.2543 22.6045 19.4163 21.0104 21.0104C19.4163 22.6045 17.2543 23.5 15 23.5C12.7457 23.5 10.5837 22.6045 8.98959 21.0104C7.39553 19.4163 6.5 17.2543 6.5 15C6.5 12.7457 7.39553 10.5837 8.98959 8.98959C10.5837 7.39553 12.7457 6.5 15 6.5C17.2543 6.5 19.4163 7.39553 21.0104 8.98959C22.6045 10.5837 23.5 12.7457 23.5 15V15Z" stroke="white" stroke-width="2" stroke-linecap="round" stroke-linejoin="round"/>
    </symbol>
    <symbol id="facebook-icon" viewBox="0 0 32 32">
        <path d="M30 16.0857C30 8.30621 23.7323 2 16.0017 2C8.26772 2.00175 2 8.30621 2 16.0875C2 23.1164 7.11986 28.9431 13.811 30V20.1575H10.259V16.0875H13.8145V12.9816C13.8145 9.45232 15.9055 7.50306 19.1024 7.50306C20.6352 7.50306 22.2362 7.77778 22.2362 7.77778V11.2423H20.4707C18.7332 11.2423 18.1907 12.329 18.1907 13.4436V16.0857H22.0717L21.4523 20.1557H18.189V29.9983C24.8801 28.9414 30 23.1146 30 16.0857Z" fill="#111111"/>
    </symbol>
    <symbol id="checked-icon" width="10" height="8" viewBox="0 0 10 8">
        <path d="M7.70019 0.389933L3.92019 5.38993L2.29019 3.27993C2.12708 3.07041 1.88742 2.93427 1.62393 2.90145C1.36044 2.86863 1.09471 2.94182 0.885189 3.10493C0.675668 3.26804 0.539523 3.5077 0.506704 3.77119C0.473885 4.03468 0.547081 4.30041 0.710189 4.50993L3.14019 7.61993C3.23436 7.73911 3.35445 7.83527 3.49133 7.90111C3.62821 7.96696 3.7783 8.00075 3.93019 7.99993C4.08291 7.99957 4.23351 7.96422 4.37045 7.89662C4.50739 7.82902 4.62703 7.73095 4.72019 7.60993L9.29019 1.60993C9.45197 1.39776 9.52284 1.13001 9.48721 0.865583C9.45158 0.601156 9.31236 0.361714 9.10019 0.199932C8.88802 0.0381502 8.62027 -0.0327202 8.35584 0.00291173C8.09141 0.0385436 7.85197 0.17776 7.69019 0.389933H7.70019Z" fill="white"/>
    </symbol>
</svg>